<?xml version="1.0" encoding="UTF-8" standalone="no"?>
<svg
   xmlns:dc="http://purl.org/dc/elements/1.1/"
   xmlns:cc="http://creativecommons.org/ns#"
   xmlns:rdf="http://www.w3.org/1999/02/22-rdf-syntax-ns#"
   xmlns:svg="http://www.w3.org/2000/svg"
   xmlns="http://www.w3.org/2000/svg"
   viewBox="0 0 755.90533 755.90533"
   height="755.90533"
   width="755.90533"
   xml:space="preserve"
   id="svg2"
   version="1.1"><metadata
     id="metadata8"><rdf:RDF><cc:Work
         rdf:about=""><dc:format>image/svg+xml</dc:format><dc:type
           rdf:resource="http://purl.org/dc/dcmitype/StillImage" /></cc:Work></rdf:RDF></metadata><defs
     id="defs6"><clipPath
       id="clipPath18"
       clipPathUnits="userSpaceOnUse"><path
         id="path16"
         d="M 0,566.929 H 566.929 V 0 H 0 Z" /></clipPath></defs><g
     transform="matrix(1.3333333,0,0,-1.3333333,0,755.90533)"
     id="g10"><g
       id="g12"><g
         clip-path="url(#clipPath18)"
         id="g14"><g
           transform="translate(252.5126,89.835)"
           id="g20"><path
             id="path22"
             style="fill:#efcb6f;fill-opacity:1;fill-rule:nonzero;stroke:none"
             d="m 0,0 c -2.284,0 -4.209,1.772 -4.367,4.083 l -0.898,13.17 c -0.165,2.414 1.659,4.504 4.073,4.669 2.416,0.163 4.504,-1.659 4.669,-4.074 L 4.376,4.679 C 4.539,2.265 2.716,0.175 0.302,0.01 0.2,0.004 0.099,0 0,0" /></g><g
           transform="translate(332.4066,428.1622)"
           id="g24"><path
             id="path26"
             style="fill:#efcb6f;fill-opacity:1;fill-rule:nonzero;stroke:none"
             d="m 0,0 h -108.784 l 1.103,9.264 0.063,-0.916 c 0.157,-2.313 2.082,-4.083 4.367,-4.083 0.099,0 0.2,0.002 0.302,0.01 2.414,0.163 4.237,2.255 4.073,4.669 l -2.93,42.966 H 6.179 Z m -7.222,-60.673 h -108.784 l 6.179,51.91 H -1.044 Z M 62.053,-333.427 15.602,56.809 c -0.269,2.259 -2.211,3.909 -4.44,3.862 -0.017,0 -0.033,0.002 -0.049,0.002 h -117.608 c -0.013,0 -0.025,-0.001 -0.038,-0.001 -0.031,-10e-4 -0.063,-10e-4 -0.095,-0.003 -0.042,-10e-4 -0.085,-0.002 -0.127,-0.005 -0.013,-0.001 -0.027,-0.001 -0.04,-0.002 -0.014,-10e-4 -0.03,-0.003 -0.045,-0.004 -0.045,-0.003 -0.091,-0.008 -0.136,-0.013 -0.026,-0.002 -0.052,-0.005 -0.079,-0.009 -0.045,-0.006 -0.09,-0.012 -0.135,-0.019 -0.027,-0.004 -0.053,-0.009 -0.079,-0.013 -0.043,-0.008 -0.085,-0.017 -0.127,-0.026 -0.028,-0.005 -0.057,-0.011 -0.084,-0.017 -0.039,-0.009 -0.077,-0.019 -0.115,-0.029 -0.031,-0.008 -0.061,-0.016 -0.092,-0.024 -0.031,-0.009 -0.061,-0.018 -0.091,-0.028 -0.22,-0.067 -0.433,-0.151 -0.636,-0.25 -0.009,-0.004 -0.018,-0.007 -0.025,-0.012 -0.048,-0.023 -0.095,-0.048 -0.142,-0.073 -0.013,-0.007 -0.025,-0.014 -0.038,-0.021 -0.043,-0.024 -0.086,-0.049 -0.13,-0.075 -0.014,-0.009 -0.03,-0.018 -0.045,-0.028 -0.039,-0.024 -0.08,-0.05 -0.118,-0.076 -0.018,-0.011 -0.035,-0.023 -0.053,-0.035 -0.036,-0.025 -0.073,-0.051 -0.109,-0.077 -0.019,-0.014 -0.038,-0.028 -0.059,-0.043 -0.032,-0.025 -0.066,-0.05 -0.098,-0.076 -0.022,-0.017 -0.042,-0.035 -0.064,-0.053 -0.029,-0.024 -0.058,-0.048 -0.086,-0.074 -0.025,-0.021 -0.048,-0.043 -0.073,-0.065 -0.025,-0.023 -0.05,-0.045 -0.073,-0.068 -0.028,-0.027 -0.056,-0.054 -0.083,-0.082 -0.019,-0.02 -0.04,-0.039 -0.059,-0.059 -0.032,-0.035 -0.064,-0.07 -0.096,-0.106 -0.012,-0.014 -0.025,-0.028 -0.038,-0.043 -0.044,-0.05 -0.086,-0.101 -0.129,-0.153 V 59.01 c -0.087,-0.11 -0.168,-0.224 -0.245,-0.341 -0.002,-0.004 -0.003,-0.007 -0.006,-0.01 -0.034,-0.054 -0.067,-0.108 -0.099,-0.163 -0.009,-0.016 -0.018,-0.032 -0.028,-0.048 -0.023,-0.043 -0.047,-0.085 -0.07,-0.129 -0.013,-0.024 -0.025,-0.048 -0.037,-0.072 -0.017,-0.036 -0.035,-0.072 -0.052,-0.108 -0.015,-0.031 -0.028,-0.062 -0.041,-0.093 -0.013,-0.03 -0.026,-0.059 -0.039,-0.09 -0.015,-0.037 -0.03,-0.074 -0.044,-0.112 -0.009,-0.024 -0.018,-0.049 -0.027,-0.073 -0.016,-0.043 -0.03,-0.087 -0.045,-0.13 -0.006,-0.02 -0.011,-0.039 -0.017,-0.059 -0.016,-0.048 -0.03,-0.097 -0.043,-0.146 -0.004,-0.015 -0.008,-0.03 -0.011,-0.045 -0.015,-0.053 -0.028,-0.106 -0.04,-0.16 -0.001,-0.012 -0.004,-0.024 -0.007,-0.036 -0.012,-0.056 -0.022,-0.112 -0.032,-0.169 -0.002,-0.011 -0.003,-0.022 -0.006,-0.034 -0.009,-0.056 -0.016,-0.113 -0.023,-0.17 -0.002,-0.004 -0.002,-0.009 -0.003,-0.013 l -18.416,-154.721 c -0.286,-2.402 1.43,-4.581 3.833,-4.868 2.404,-0.287 4.583,1.43 4.869,3.833 l 3.512,29.511 H -8.265 l -6.067,-50.963 c -2.288,-0.146 -4.101,-2.046 -4.101,-4.373 0,-1.967 1.297,-3.63 3.082,-4.184 l -6.201,-52.107 h -8.597 c -2.42,0 -4.381,-1.961 -4.381,-4.381 0,-2.42 1.961,-4.382 4.381,-4.382 h 7.554 l -6.179,-51.909 h -15.389 c 1.411,-0.014 -21.817,0 -20.758,0 h -11.545 c -2.419,0 -4.382,-1.962 -4.382,-4.382 0,-2.42 1.963,-4.381 4.382,-4.381 h 46.649 l -6.179,-51.91 H -144.78 l 6.179,51.91 h 12.378 c 2.42,0 4.381,1.961 4.381,4.381 0,2.42 -1.961,4.382 -4.381,4.382 h -11.335 l 6.179,51.909 h 11.986 c 2.42,0 4.382,1.962 4.382,4.382 0,2.42 -1.962,4.381 -4.382,4.381 h -10.943 l 0.128,1.081 c 0.287,2.404 -1.429,4.583 -3.832,4.869 -2.402,0.286 -4.583,-1.43 -4.869,-3.832 l -18.388,-154.482 c -0.286,-2.403 1.43,-4.583 3.833,-4.87 0.175,-0.02 0.35,-0.03 0.523,-0.03 2.189,0 4.08,1.637 4.346,3.864 l 2.772,23.292 h 108.784 l -2.649,-22.256 c -0.287,-2.403 1.429,-4.583 3.832,-4.87 0.177,-0.02 0.35,-0.03 0.523,-0.03 2.189,0 4.08,1.637 4.346,3.864 l 42.168,354.272 2.428,-20.39 c -1.315,-0.757 -2.201,-2.175 -2.201,-3.8 0,-1.994 1.332,-3.676 3.154,-4.207 l 6.2,-52.085 h -8.389 c -2.42,0 -4.381,-1.963 -4.381,-4.381 0,-2.42 1.961,-4.382 4.381,-4.382 h 9.432 L 27.87,-120.39 H 6.609 c -2.42,0 -4.382,-1.962 -4.382,-4.382 0,-2.42 1.962,-4.381 4.382,-4.381 h 22.304 l 6.179,-51.91 H -2.002 c -2.42,0 -4.382,-1.961 -4.382,-4.381 0,-2.42 1.962,-4.382 4.382,-4.382 h 38.137 l 6.179,-51.909 H -9.273 c -2.42,0 -4.381,-1.962 -4.381,-4.382 0,-2.42 1.961,-4.381 4.381,-4.381 h 52.63 l 6.179,-51.91 h -63.324 c -2.42,0 -4.382,-1.962 -4.382,-4.382 0,-2.42 1.962,-4.381 4.382,-4.381 h 64.367 l 2.772,-23.292 c 0.266,-2.227 2.157,-3.864 4.347,-3.864 0.172,0 0.346,0.01 0.523,0.03 2.402,0.287 4.118,2.467 3.832,4.87" /></g><g
           transform="translate(278.3003,328.3355)"
           id="g28"><path
             id="path30"
             style="fill:#262626;fill-opacity:1;fill-rule:nonzero;stroke:none"
             d="m 0,0 c 0,14.218 -11.567,25.783 -25.783,25.783 -14.218,0 -25.785,-11.565 -25.785,-25.783 0,-14.218 11.567,-25.785 25.785,-25.785 C -11.567,-25.785 0,-14.218 0,0 m -42.805,0 c 0,9.385 7.635,17.02 17.022,17.02 9.385,0 17.02,-7.635 17.02,-17.02 0,-9.386 -7.635,-17.022 -17.02,-17.022 -9.387,0 -17.022,7.636 -17.022,17.022" /></g><g
           transform="translate(249.7523,130.3223)"
           id="g32"><path
             id="path34"
             style="fill:#efcb6f;fill-opacity:1;fill-rule:nonzero;stroke:none"
             d="M 0,0 C 0.099,0 0.2,0.004 0.302,0.012 2.716,0.175 4.539,2.267 4.376,4.681 L 3.91,11.517 C 3.745,13.932 1.656,15.754 -0.761,15.589 -3.175,15.426 -4.998,13.336 -4.834,10.92 L -4.367,4.083 C -4.209,1.772 -2.284,0 0,0" /></g><g
           transform="translate(237.3061,381.7321)"
           id="g36"><path
             id="path38"
             style="fill:#efcb6f;fill-opacity:1;fill-rule:nonzero;stroke:none"
             d="m 0,0 -1.821,26.701 c -0.165,2.414 -2.254,4.238 -4.669,4.073 -2.415,-0.164 -4.237,-2.255 -4.074,-4.669 l 1.822,-26.702 c 0.157,-2.312 2.082,-4.084 4.366,-4.084 0.1,0 0.2,0.005 0.303,0.012 C -1.659,-4.506 0.164,-2.414 0,0" /></g><g
           transform="translate(293.3013,287.478)"
           id="g40"><path
             id="path42"
             style="fill:#262626;fill-opacity:1;fill-rule:nonzero;stroke:none"
             d="M 0,0 C -0.012,-0.063 -0.02,-0.127 -0.028,-0.19 -0.254,-2.005 -1.799,-3.377 -3.626,-3.387 L -30.81,-3.07 h -0.053 c -2.192,0 -4.05,-1.621 -4.342,-3.8 l -5.687,-42.507 c 0,-0.005 0,-0.009 -10e-4,-0.013 -0.006,-0.047 -0.011,-0.095 -0.015,-0.144 -0.003,-0.029 -0.007,-0.058 -0.009,-0.087 -0.003,-0.032 -0.004,-0.066 -0.006,-0.098 -0.003,-0.045 -0.004,-0.089 -0.005,-0.133 0,-0.004 0,-0.009 -0.002,-0.013 0,-0.015 0.002,-0.029 0.002,-0.044 -0.002,-0.058 -0.002,-0.115 0,-0.172 0,-0.013 10e-4,-0.028 10e-4,-0.041 0.003,-0.061 0.006,-0.121 0.01,-0.181 0.002,-0.015 0.003,-0.029 0.005,-0.044 0.004,-0.059 0.01,-0.115 0.017,-0.172 0.003,-0.019 0.006,-0.038 0.009,-0.059 0.007,-0.051 0.015,-0.102 0.025,-0.152 0.004,-0.026 0.009,-0.052 0.014,-0.077 0.009,-0.044 0.018,-0.088 0.027,-0.13 0.007,-0.032 0.016,-0.064 0.024,-0.096 0.009,-0.035 0.018,-0.072 0.028,-0.109 0.01,-0.036 0.022,-0.074 0.034,-0.111 0.009,-0.029 0.017,-0.058 0.028,-0.087 0.013,-0.043 0.029,-0.083 0.043,-0.126 0.009,-0.023 0.018,-0.048 0.027,-0.071 0.017,-0.044 0.036,-0.089 0.054,-0.133 l 0.026,-0.062 c 0.02,-0.045 0.042,-0.089 0.063,-0.134 0.01,-0.017 0.019,-0.037 0.028,-0.055 0.021,-0.044 0.045,-0.09 0.07,-0.133 0.008,-0.018 0.019,-0.035 0.029,-0.053 0.023,-0.044 0.049,-0.085 0.074,-0.127 0.012,-0.019 0.022,-0.038 0.034,-0.056 0.025,-0.039 0.051,-0.078 0.077,-0.116 0.013,-0.021 0.028,-0.041 0.041,-0.062 0.025,-0.035 0.051,-0.07 0.076,-0.105 0.018,-0.022 0.034,-0.045 0.051,-0.067 0.025,-0.031 0.05,-0.061 0.075,-0.092 0.02,-0.025 0.041,-0.05 0.061,-0.074 0.023,-0.027 0.047,-0.053 0.07,-0.079 0.024,-0.027 0.048,-0.054 0.073,-0.081 0.022,-0.023 0.044,-0.045 0.066,-0.067 0.028,-0.029 0.057,-0.057 0.086,-0.086 0.019,-0.018 0.04,-0.037 0.06,-0.056 0.032,-0.029 0.064,-0.058 0.096,-0.087 0.019,-0.016 0.038,-0.032 0.057,-0.048 0.035,-0.03 0.07,-0.059 0.107,-0.088 0.019,-0.015 0.038,-0.029 0.055,-0.042 0.038,-0.03 0.076,-0.057 0.114,-0.085 0.019,-0.013 0.038,-0.026 0.059,-0.041 0.038,-0.026 0.076,-0.051 0.115,-0.077 0.022,-0.013 0.044,-0.027 0.064,-0.041 0.038,-0.022 0.076,-0.046 0.114,-0.069 0.027,-0.015 0.052,-0.028 0.076,-0.042 0.037,-0.019 0.072,-0.038 0.108,-0.057 0.031,-0.016 0.062,-0.031 0.092,-0.046 0.033,-0.016 0.065,-0.032 0.097,-0.046 0.036,-0.016 0.074,-0.032 0.112,-0.048 0.026,-0.012 0.053,-0.024 0.081,-0.034 0.043,-0.019 0.089,-0.035 0.134,-0.051 0.022,-0.007 0.042,-0.016 0.064,-0.023 0.051,-0.018 0.105,-0.036 0.158,-0.052 0.016,-0.004 0.03,-0.008 0.045,-0.013 0.059,-0.017 0.118,-0.032 0.178,-0.048 0.012,-10e-4 0.022,-0.004 0.033,-0.007 0.062,-0.015 0.125,-0.028 0.188,-0.04 0.01,-0.003 0.019,-0.004 0.029,-0.006 0.06,-0.011 0.121,-0.02 0.183,-0.029 0.011,-10e-4 0.022,-0.004 0.033,-0.006 h 0.008 c 0.09,-0.013 0.182,-0.022 0.274,-0.027 0.022,-0.002 0.044,-0.002 0.066,-0.003 0.047,-0.003 0.093,-0.006 0.14,-0.007 l 23.007,-0.488 c 0.031,-0.002 0.061,-0.002 0.092,-0.002 1.263,0 2.458,-0.549 3.279,-1.509 0.82,-0.958 1.18,-2.224 0.984,-3.471 l -4.611,-29.578 c -0.324,-2.081 -2.152,-3.651 -4.253,-3.651 -0.223,0 -0.451,0.018 -0.676,0.053 -2.35,0.366 -3.965,2.577 -3.598,4.929 l 3.046,19.541 c 0.197,1.265 -0.168,2.551 -1,3.524 -0.833,0.973 -2.048,1.532 -3.329,1.532 h -28.635 c -2.187,0 -4.04,-1.614 -4.339,-3.781 l -9.643,-69.63 c -0.293,-2.123 -2.126,-3.724 -4.263,-3.724 -0.2,0 -0.401,0.015 -0.603,0.042 -1.142,0.158 -2.153,0.751 -2.849,1.671 -0.695,0.919 -0.992,2.054 -0.833,3.196 0,0.004 0.002,0.01 0.002,0.014 l 16.842,124.824 c 0.003,0.017 0.003,0.033 0.006,0.047 0.006,0.051 0.012,0.102 0.016,0.154 0.002,0.022 0.003,0.043 0.006,0.065 0.003,0.051 0.006,0.101 0.008,0.152 0,0.023 0.002,0.048 0.002,0.072 0.002,0.048 0.002,0.095 0.002,0.143 0,0.026 -0.002,0.053 -0.002,0.08 -0.002,0.044 -0.003,0.088 -0.006,0.132 -10e-4,0.029 -0.004,0.06 -0.006,0.089 -0.004,0.041 -0.007,0.08 -0.011,0.121 -0.005,0.032 -0.008,0.066 -0.012,0.098 -0.004,0.036 -0.01,0.074 -0.016,0.111 -0.006,0.035 -0.012,0.071 -0.018,0.106 -0.005,0.034 -0.013,0.068 -0.02,0.101 -0.007,0.038 -0.016,0.076 -0.025,0.114 -0.007,0.031 -0.015,0.06 -0.022,0.091 -0.01,0.041 -0.022,0.081 -0.033,0.122 -0.008,0.028 -0.016,0.054 -0.025,0.081 -0.013,0.043 -0.028,0.087 -0.043,0.131 -0.007,0.023 -0.016,0.047 -0.024,0.07 -0.017,0.047 -0.035,0.094 -0.053,0.139 -0.009,0.02 -0.017,0.041 -0.025,0.061 -0.02,0.048 -0.042,0.097 -0.064,0.144 -0.009,0.019 -0.018,0.037 -0.026,0.055 -0.024,0.048 -0.047,0.096 -0.072,0.143 -0.007,0.013 -0.013,0.026 -0.019,0.038 -0.003,0.006 -0.007,0.012 -0.01,0.018 -0.024,0.043 -0.048,0.086 -0.073,0.128 -0.013,0.023 -0.026,0.045 -0.041,0.069 -0.019,0.032 -0.041,0.064 -0.061,0.096 -0.021,0.031 -0.04,0.063 -0.06,0.092 -0.013,0.019 -0.027,0.037 -0.038,0.054 -0.276,0.39 -0.608,0.726 -0.979,0.998 -0.004,0.004 -0.008,0.007 -0.014,0.011 -0.022,0.016 -0.044,0.031 -0.066,0.047 -0.424,0.297 -0.904,0.523 -1.428,0.657 -0.012,0.003 -0.024,0.006 -0.035,0.009 -0.044,0.01 -0.087,0.021 -0.13,0.029 -0.03,0.006 -0.06,0.013 -0.091,0.019 -0.032,0.006 -0.064,0.012 -0.096,0.018 -0.043,0.007 -0.084,0.014 -0.126,0.02 -0.009,0 -0.017,0.003 -0.026,0.003 -0.018,0.003 -0.037,0.005 -0.054,0.007 -0.047,0.006 -0.094,0.011 -0.142,0.015 -0.025,0.003 -0.051,0.004 -0.076,0.006 -0.047,0.004 -0.095,0.006 -0.142,0.009 -0.026,0.001 -0.052,0.001 -0.08,0.001 -0.045,0.002 -0.089,0.002 -0.134,0.002 -0.03,0 -0.057,0 -0.086,-0.002 -0.043,-0.001 -0.085,-0.003 -0.127,-0.006 -0.031,-10e-4 -0.063,-0.004 -0.094,-0.006 -0.039,-0.003 -0.079,-0.007 -0.118,-0.011 -0.034,-0.003 -0.066,-0.008 -0.1,-0.012 -0.036,-0.004 -0.073,-0.01 -0.111,-0.016 -0.035,-0.004 -0.07,-0.01 -0.105,-0.017 -0.033,-0.006 -0.068,-0.014 -0.102,-0.021 -0.038,-0.007 -0.075,-0.015 -0.111,-0.023 -0.032,-0.008 -0.064,-0.016 -0.096,-0.024 -0.038,-0.01 -0.078,-0.02 -0.116,-0.032 -0.029,-0.009 -0.06,-0.017 -0.089,-0.026 -0.041,-0.013 -0.08,-0.026 -0.12,-0.039 -0.027,-0.011 -0.055,-0.019 -0.081,-0.03 -0.043,-0.014 -0.085,-0.03 -0.126,-0.048 -0.025,-0.01 -0.051,-0.02 -0.076,-0.031 -0.042,-0.017 -0.085,-0.036 -0.127,-0.057 -0.025,-0.01 -0.048,-0.021 -0.072,-0.032 -0.042,-0.02 -0.083,-0.042 -0.124,-0.063 -0.017,-0.008 -0.033,-0.017 -0.051,-0.026 l -17.413,-9.356 c -0.08,-0.043 -0.159,-0.089 -0.237,-0.137 -1.432,-0.888 -3.008,-1.446 -4.682,-1.656 -2.493,-0.314 -4.3,1.028 -5.154,1.855 -1.65,1.597 -2.521,3.855 -2.337,6.05 l 3.811,31.446 c 0.239,1.995 2.059,3.425 4.052,3.188 1.988,-0.238 3.414,-2.039 3.193,-4.023 L -86.227,-1.23 c -0.23,-1.694 0.547,-3.368 1.988,-4.286 1.442,-0.919 3.286,-0.914 4.725,0.01 l 14.686,9.445 c 2.074,1.335 4.474,2.039 6.94,2.039 h 47.43 c 2.119,0 3.933,1.516 4.311,3.6 l 5.613,30.956 c 0.014,0.08 0.026,0.161 0.036,0.241 0.247,1.995 2.074,3.415 4.067,3.169 1.97,-0.243 3.381,-2.025 3.178,-3.991 z M 4.649,52.64 C -2.096,53.475 -8.269,48.707 -9.176,41.989 l -4.941,-27.248 h -43.771 c -4.142,0 -8.197,-1.192 -11.681,-3.432 l -6.693,-4.304 1.745,12.821 0.009,0.072 c 0.582,4.736 -1.471,9.584 -5.593,11.99 -8.528,4.979 -18.031,-0.517 -19.05,-9.04 l -3.817,-31.506 c -0.005,-0.042 -0.009,-0.083 -0.013,-0.124 -0.446,-4.831 1.409,-9.769 4.962,-13.208 3.371,-3.264 7.869,-4.814 12.339,-4.253 2.887,0.362 5.608,1.313 8.089,2.829 l 9.737,5.231 -15.693,-116.304 c -0.987,-7.141 4.02,-13.756 11.161,-14.745 0.598,-0.081 1.205,-0.124 1.805,-0.124 3.132,0 6.165,1.132 8.544,3.187 2.401,2.075 3.964,4.952 4.399,8.098 l 9.119,65.85 h 19.701 l -2.258,-14.485 c -0.573,-3.668 0.448,-7.226 2.546,-9.965 0,0 0.714,-0.519 1.567,-1.234 1.674,-1.403 3.713,-2.314 5.871,-2.651 1.636,-0.255 3.279,-0.483 4.972,-0.522 1.133,-0.027 2.179,0.109 3.205,0.321 1.999,0.414 3.822,1.461 5.218,2.95 l 0.066,0.071 c 1.32,1.724 2.059,4.826 2.398,7.001 l 4.563,29.261 c 0.351,2.252 0.249,4.589 -0.539,6.727 -1.982,5.376 -6.928,8.661 -12.281,8.682 l -18.067,0.384 4.524,33.804 23.335,-0.271 c 0.017,-0.002 0.034,-0.002 0.051,-0.002 6.216,0 11.485,4.626 12.302,10.776 l 6.56,38.844 c 0.074,0.605 0.157,1.209 0.231,1.815 0.555,6.594 -4.171,12.533 -10.797,13.355" /></g></g></g></g></svg>