<?xml version="1.0" encoding="UTF-8" standalone="no"?>
<svg
   xmlns:dc="http://purl.org/dc/elements/1.1/"
   xmlns:cc="http://creativecommons.org/ns#"
   xmlns:rdf="http://www.w3.org/1999/02/22-rdf-syntax-ns#"
   xmlns:svg="http://www.w3.org/2000/svg"
   xmlns="http://www.w3.org/2000/svg"
   viewBox="0 0 374.17334 793.70135"
   height="793.70135"
   width="374.17334"
   xml:space="preserve"
   id="svg2"
   version="1.1"><metadata
     id="metadata8"><rdf:RDF><cc:Work
         rdf:about=""><dc:format>image/svg+xml</dc:format><dc:type
           rdf:resource="http://purl.org/dc/dcmitype/StillImage" /></cc:Work></rdf:RDF></metadata><defs
     id="defs6"><clipPath
       id="clipPath18"
       clipPathUnits="userSpaceOnUse"><path
         id="path16"
         d="M 0,595.276 H 280.63 V 0 H 0 Z" /></clipPath></defs><g
     transform="matrix(1.3333333,0,0,-1.3333333,0,793.70133)"
     id="g10"><g
       id="g12"><g
         clip-path="url(#clipPath18)"
         id="g14"><g
           transform="translate(134.5507,187.5478)"
           id="g20"><path
             id="path22"
             style="fill:#181817;fill-opacity:1;fill-rule:nonzero;stroke:none"
             d="m 0,0 c -0.573,0.633 -0.428,1.644 0.311,2.071 0.942,0.546 2.128,1.1 3.548,1.5 1.316,0.37 2.51,0.516 3.494,0.559 0.431,0.019 0.836,-0.164 1.108,-0.498 2.901,-3.562 6.759,-7.689 11.747,-11.76 4.7,-3.836 9.228,-6.664 13.082,-8.734 2.338,-1.3 9.953,-5.145 19.505,-3.277 7.576,1.481 12.326,5.765 14.551,7.826 6.567,6.079 8.702,13.116 10.937,19.73 3.33,9.855 3.506,18.445 3.209,23.708 -0.003,0.055 -0.009,0.108 -0.019,0.163 -0.485,2.837 -1.048,5.774 -1.702,8.8 -0.722,3.344 -1.5,6.545 -2.313,9.596 -0.029,0.111 -0.045,0.227 -0.047,0.341 -0.037,2.372 0.381,4.059 0.789,5.185 0.13,0.358 0.519,1.378 1.244,3.346 0.649,1.763 0.662,1.875 0.67,2.022 0.09,1.63 -1.394,2.443 -3.269,4.693 -1.85,2.22 -2.799,4.304 -3.448,5.73 -0.308,0.675 -0.986,2.244 -1.659,4.964 -1.274,5.143 -1.511,10.28 -1.502,13.764 -0.125,3.077 0.043,9.403 3.531,16.215 4.099,8.005 10.463,12.153 13.696,13.899 0.59,0.319 0.851,1.01 0.631,1.644 -0.39,1.13 -0.761,2.472 -1.009,4.003 -0.335,2.06 -0.353,3.871 -0.266,5.295 0.005,0.089 0.019,0.177 0.04,0.263 0.624,2.529 1.388,4.466 1.952,5.738 1.623,3.659 3.238,5.524 4.934,10.076 0.335,0.898 0.579,1.649 0.731,2.138 0.02,0.062 0.032,0.114 0.043,0.178 0.241,1.503 1.029,7.706 -3.049,13.22 -2.362,3.193 -5.314,4.745 -6.895,5.432 -2.923,1.27 -5.421,2.009 -7.749,2.51 -3.78,0.813 -5.392,0.614 -8.728,1.796 -1.794,0.636 -3.188,1.352 -4.07,1.848 0,0 -0.608,0.923 -0.75,2.181 -0.533,4.761 5.388,60.636 5.809,63.433 0.119,0.783 -0.456,1.472 -1.244,1.553 -0.256,0.026 -0.531,0.073 -0.818,0.148 -0.87,0.228 -1.519,0.631 -1.938,0.954 -0.216,0.167 -0.369,0.39 -0.452,0.65 -0.224,0.702 -0.455,1.785 -0.304,3.086 0.096,0.817 0.316,1.5 0.539,2.022 0.141,0.33 0.41,0.586 0.745,0.713 0.385,0.146 0.845,0.283 1.373,0.37 0.476,0.079 0.917,0.102 1.311,0.093 0.683,-0.014 1.275,0.461 1.386,1.135 0.104,0.63 -0.251,1.233 -0.839,1.483 -0.527,0.225 -1.134,0.576 -1.699,1.13 -0.405,0.399 -0.693,0.808 -0.895,1.158 -0.059,0.102 -0.099,0.201 -0.13,0.314 -0.14,0.514 -0.271,1.21 -0.267,2.038 0.004,0.743 0.117,1.377 0.243,1.866 0.049,0.186 0.136,0.353 0.259,0.5 0.241,0.285 0.632,0.66 1.208,0.928 1.035,0.481 1.989,0.305 2.3,0.234 0.269,-0.028 1.217,-0.159 1.997,-0.962 0.917,-0.944 0.917,-2.111 0.912,-2.336 -1.946,-23.713 -3.892,-47.426 -5.838,-71.14 -0.046,-0.559 0.256,-1.088 0.761,-1.333 l 14.216,-6.885 c 0.067,-0.033 0.134,-0.059 0.206,-0.079 2.187,-0.628 5.632,-1.928 9.071,-4.72 2.549,-2.07 4.243,-4.269 5.313,-5.917 1.188,-1.721 2.581,-4.091 3.705,-7.093 1.029,-2.748 1.537,-5.235 1.794,-7.202 0.009,-0.069 0.013,-0.133 0.013,-0.203 -0.015,-1.91 -0.228,-4.452 -1.024,-7.33 -0.732,-2.645 -1.737,-4.78 -2.623,-6.353 -0.757,-1.242 -1.579,-2.809 -2.29,-4.689 -0.7,-1.85 -1.117,-3.543 -1.373,-4.957 -0.358,-2.283 -0.105,-4.002 0.186,-5.141 0.66,-2.58 1.98,-3.989 2.189,-7.034 0.033,-0.494 0.032,-0.941 0.014,-1.322 -0.022,-0.496 -0.318,-0.933 -0.766,-1.148 -0.457,-0.22 -1.008,-0.483 -1.629,-0.774 -3.441,-1.615 -5.06,-2.249 -6.093,-2.747 -1.767,-0.854 -4.142,-2.433 -6.591,-5.63 -1.39,-1.99 -3.148,-5.014 -4.276,-9.006 -0.748,-2.644 -1.022,-5.021 -1.098,-6.92 -0.239,-2.038 -0.353,-4.989 0.321,-8.437 0.601,-3.072 1.627,-5.519 2.507,-7.235 1.337,-2.498 2.778,-4.141 3.883,-5.199 1.08,-1.034 2.506,-2.148 5.129,-4.689 0.17,-0.165 0.326,-0.317 0.462,-0.451 0.265,-0.259 0.419,-0.611 0.41,-0.981 -0.005,-0.21 -0.03,-0.443 -0.091,-0.688 -0.266,-1.072 -0.975,-1.455 -1.761,-2.602 -0.398,-0.583 -0.614,-1.102 -1.044,-2.142 -0.333,-0.802 -0.829,-1.999 -1.084,-3.525 -0.295,-1.768 -0.14,-3.227 0.072,-4.567 0.587,-3.711 1.511,-6.384 2.039,-8.146 0.639,-2.134 1.385,-5.23 1.724,-9.209 0.002,-0.021 0.002,-0.055 0.005,-0.122 0.174,-3.82 0.192,-6.69 0.195,-7.336 0.02,-3.895 -0.105,-6.112 -0.104,-6.251 0,-0.009 0.001,-0.07 -0.007,-0.151 0,0 -0.003,-0.034 -0.008,-0.068 C 88.514,12.1 87.888,9.541 87.888,9.541 87.076,6.218 85.213,0.987 82.311,-4.594 80.65,-7.788 79.002,-11 75.971,-14.758 c -3.793,-4.703 -7.79,-7.899 -10.836,-9.961 -2.363,-1.44 -6.414,-3.506 -11.856,-4.418 -5.562,-0.932 -10.159,-0.252 -12.891,0.366 -0.035,0.008 -0.067,0.016 -0.102,0.026 -3.372,0.996 -7.314,2.44 -11.536,4.57 -5.285,2.666 -9.496,5.644 -12.678,8.252 C 12.356,-12.624 8.537,-8.995 4.685,-5.01 3.058,-3.328 1.498,-1.656 0,0" /></g><g
           transform="translate(51.1939,272.2342)"
           id="g24"><path
             id="path26"
             style="fill:#181817;fill-opacity:1;fill-rule:nonzero;stroke:none"
             d="m 0,0 c -21.202,-14.702 -23.295,-96.405 17.356,-68.089 16.162,10.141 24.329,28.187 31.903,44.948 4.477,10.222 10.056,20.783 15.103,30.731 0.6,1.185 1.571,3.574 2.523,3.953 0.746,0.113 0.867,-1.861 0.954,-2.666 1.076,-11.957 1.041,-24.301 2.163,-36.104 1.042,-7.379 0.069,-14.249 2.611,-21.19 8.143,-12.961 21.241,10.527 26.616,16.394 7.983,9.969 13.857,21.402 21.868,31.19 0.446,0.12 0.689,-0.577 0.738,-1.7 -0.015,-6.726 0.211,-14.493 -0.253,-22.116 -0.471,-13.298 -1.45,-26.424 -0.977,-39.559 3.877,-18.005 20.291,7.924 23.922,13.94 3.201,4.404 -0.906,9.189 -5.512,8.878 -1.424,-0.251 -2.81,-1.592 -3.638,-1.913 -2.235,-0.417 -1.109,5.236 -1.345,7.244 0.009,3.607 0.066,9.134 0.086,13.025 0.47,11.414 0.637,22.665 0.736,34.214 -0.608,5.543 3.339,23.691 -6.815,18.79 C 118.097,19.856 111.658,6.374 102.83,-4.967 97.841,-12.777 91.489,-21.29 86.01,-28.932 c -1.322,-1.985 -4.329,-4.748 -4.776,-0.727 -0.192,8.311 0.368,16.96 -0.42,25.191 C 80.467,5.891 80.121,15.77 78.878,25.843 78.173,31.081 77.633,44.349 69.452,37.924 52.258,14.773 49.057,1.09 33.083,-27.636 28.202,-37.69 22.109,-48.471 13.726,-55.974 c -3.422,-3.963 -8.751,-6.323 -13.059,-4.543 -1.983,0.82 -3.081,2.283 -4.302,3.953 -3.934,5.379 -4.045,11.588 -4.068,15.973 -0.018,3.536 0.395,6.123 0.826,8.748 1.192,7.261 1.668,17.742 9.59,24.688 1.349,1.183 3.791,2.322 4.065,4.133 0.089,2.329 -4.308,3.973 -6.347,3.18 z" /></g></g></g></g></svg>