<?xml version="1.0" encoding="UTF-8" standalone="no"?>
<svg
   xmlns:dc="http://purl.org/dc/elements/1.1/"
   xmlns:cc="http://creativecommons.org/ns#"
   xmlns:rdf="http://www.w3.org/1999/02/22-rdf-syntax-ns#"
   xmlns:svg="http://www.w3.org/2000/svg"
   xmlns="http://www.w3.org/2000/svg"
   viewBox="0 0 755.90533 755.90533"
   height="755.90533"
   width="755.90533"
   xml:space="preserve"
   id="svg2"
   version="1.1"><metadata
     id="metadata8"><rdf:RDF><cc:Work
         rdf:about=""><dc:format>image/svg+xml</dc:format><dc:type
           rdf:resource="http://purl.org/dc/dcmitype/StillImage" /></cc:Work></rdf:RDF></metadata><defs
     id="defs6"><clipPath
       id="clipPath18"
       clipPathUnits="userSpaceOnUse"><path
         id="path16"
         d="M 0,566.929 H 566.929 V 0 H 0 Z" /></clipPath></defs><g
     transform="matrix(1.3333333,0,0,-1.3333333,0,755.90533)"
     id="g10"><g
       id="g12"><g
         clip-path="url(#clipPath18)"
         id="g14"><g
           transform="translate(61.3504,197.2691)"
           id="g20"><path
             id="path22"
             style="fill:#19191a;fill-opacity:1;fill-rule:nonzero;stroke:none"
             d="m 0,0 c -0.16,1.661 1.243,2.938 2.897,2.599 2.108,-0.431 4.609,-1.165 7.296,-2.427 2.49,-1.17 4.53,-2.507 6.119,-3.72 0.697,-0.531 1.117,-1.322 1.154,-2.16 0.397,-8.926 1.633,-19.912 4.702,-32.283 2.892,-11.657 6.688,-21.628 10.312,-29.628 2.146,-4.915 9.589,-20.366 26.712,-30.047 13.579,-7.677 25.996,-7.626 31.877,-7.525 17.347,0.297 28.877,7.73 40.068,14.419 16.676,9.968 26.946,22.194 32.604,30.207 0.06,0.085 0.112,0.169 0.161,0.261 2.541,4.743 5.076,9.731 7.574,14.965 2.76,5.785 5.267,11.434 7.545,16.911 0.082,0.198 0.192,0.388 0.322,0.555 2.702,3.488 5.318,5.391 7.266,6.494 0.621,0.351 2.416,1.325 5.841,3.238 3.067,1.713 3.216,1.859 3.4,2.062 2.037,2.248 0.66,5.35 0.344,11.042 -0.312,5.619 0.627,9.87 1.27,12.78 0.304,1.377 1.069,4.532 3.179,9.347 3.99,9.109 9.595,16.864 13.663,21.901 3.384,4.623 11.006,13.577 24.391,18.929 15.727,6.289 30.512,4.049 37.602,2.387 1.295,-0.304 2.507,0.361 2.902,1.565 0.702,2.144 1.684,4.571 3.076,7.112 1.874,3.421 3.952,6.068 5.744,8.021 0.112,0.123 0.236,0.231 0.37,0.329 3.918,2.858 7.367,4.674 9.73,5.787 6.796,3.199 11.494,3.808 19.444,8.208 1.568,0.868 2.823,1.639 3.631,2.151 0.103,0.065 0.182,0.124 0.273,0.204 2.126,1.865 10.577,9.836 10.609,23.118 0.019,7.693 -2.795,13.771 -4.47,16.817 -3.098,5.631 -6.147,9.943 -9.207,13.688 -4.969,6.081 -7.724,7.882 -11.57,13.923 -2.068,3.248 -3.415,6.095 -4.219,7.957 0,0 0.121,2.127 1.364,4.134 4.704,7.595 78.975,80.918 82.889,84.425 1.096,0.983 0.999,2.727 -0.14,3.866 -0.371,0.37 -0.747,0.794 -1.109,1.276 -1.096,1.459 -1.643,2.883 -1.923,3.896 -0.144,0.522 -0.124,1.044 0.048,1.529 0.467,1.307 1.365,3.176 3.116,4.866 1.099,1.061 2.239,1.766 3.195,2.233 0.605,0.296 1.323,0.318 1.996,0.068 0.771,-0.287 1.652,-0.685 2.58,-1.244 0.835,-0.503 1.553,-1.042 2.16,-1.565 1.051,-0.907 2.53,-0.986 3.488,-0.153 0.897,0.779 1.041,2.113 0.412,3.239 -0.563,1.008 -1.105,2.305 -1.343,3.841 -0.171,1.104 -0.145,2.069 -0.054,2.839 0.026,0.224 0.078,0.42 0.162,0.625 0.379,0.926 0.983,2.105 1.953,3.299 0.871,1.072 1.785,1.846 2.551,2.39 0.292,0.207 0.622,0.336 0.987,0.389 0.709,0.102 1.757,0.137 2.97,-0.221 2.18,-0.643 3.468,-2.137 3.872,-2.644 0.388,-0.388 1.719,-1.808 2.005,-3.983 0.337,-2.558 -1.021,-4.25 -1.29,-4.57 -30.633,-31.853 -61.266,-63.706 -91.9,-95.559 -0.722,-0.752 -0.865,-1.912 -0.359,-2.921 l 14.236,-28.418 c 0.068,-0.134 0.142,-0.258 0.231,-0.382 2.692,-3.746 6.571,-10.098 8.704,-18.606 1.581,-6.307 1.675,-11.69 1.431,-15.468 -0.142,-4.035 -0.72,-9.278 -2.453,-15.088 -1.586,-5.318 -3.685,-9.582 -5.571,-12.768 -0.067,-0.112 -0.135,-0.209 -0.216,-0.309 -2.246,-2.75 -5.537,-6.16 -10.132,-9.3 -4.222,-2.885 -8.277,-4.676 -11.495,-5.807 -2.629,-0.82 -5.739,-2.025 -9.039,-3.828 -3.246,-1.775 -5.869,-3.687 -7.915,-5.407 -3.217,-2.844 -4.821,-5.665 -5.69,-7.693 -1.968,-4.597 -1.542,-8.351 -4.758,-13.035 -0.522,-0.761 -1.045,-1.407 -1.515,-1.936 -0.613,-0.69 -1.583,-0.94 -2.534,-0.671 -0.972,0.274 -2.139,0.608 -3.451,0.991 -7.264,2.121 -10.535,3.302 -12.731,3.919 -3.758,1.055 -9.313,1.845 -16.864,0.386 -4.49,-1.082 -10.76,-3.185 -17.169,-7.509 -4.247,-2.865 -7.442,-5.955 -9.769,-8.609 -2.745,-2.646 -6.356,-6.775 -9.313,-12.648 -2.634,-5.231 -3.875,-10.111 -4.495,-13.739 -0.814,-5.356 -0.47,-9.606 0.029,-12.572 0.487,-2.901 1.422,-6.365 2.571,-13.45 0.074,-0.46 0.141,-0.882 0.199,-1.254 0.112,-0.718 -0.056,-1.429 -0.5,-1.954 -0.252,-0.298 -0.562,-0.602 -0.943,-0.879 -1.663,-1.208 -3.219,-0.845 -5.783,-1.489 -1.301,-0.327 -2.243,-0.801 -4.126,-1.75 -1.454,-0.732 -3.623,-1.824 -5.797,-3.705 -2.519,-2.179 -3.974,-4.497 -5.201,-6.713 -3.399,-6.142 -5.062,-11.215 -6.286,-14.454 -1.482,-3.923 -3.917,-9.379 -8.016,-15.587 -0.021,-0.032 -0.06,-0.082 -0.133,-0.184 -4.172,-5.761 -7.484,-9.946 -8.23,-10.887 -4.5,-5.672 -7.275,-8.724 -7.435,-8.927 -0.011,-0.014 -0.08,-0.103 -0.187,-0.21 0,0 -0.045,-0.045 -0.092,-0.088 -7.208,-6.465 -11.164,-9.363 -11.164,-9.364 -5.137,-3.764 -14.137,-8.931 -25.171,-13.258 -6.316,-2.476 -12.631,-4.995 -21.748,-6.513 -11.408,-1.898 -21.38,-1.347 -28.545,-0.387 -5.373,0.977 -14.118,3.236 -23.695,8.971 -9.789,5.862 -16.192,12.81 -19.747,17.248 -0.047,0.058 -0.087,0.111 -0.13,0.171 -4.118,5.817 -8.608,13.023 -12.737,21.586 -5.17,10.718 -8.294,20.497 -10.24,28.404 -1.978,9.603 -3.732,19.817 -5.124,30.589 C 0.915,-8.791 0.417,-4.343 0,0" /></g></g></g></g></svg>