<?xml version="1.0" encoding="UTF-8" standalone="no"?>
<svg
   xmlns:dc="http://purl.org/dc/elements/1.1/"
   xmlns:cc="http://creativecommons.org/ns#"
   xmlns:rdf="http://www.w3.org/1999/02/22-rdf-syntax-ns#"
   xmlns:svg="http://www.w3.org/2000/svg"
   xmlns="http://www.w3.org/2000/svg"
   viewBox="0 0 374.17334 793.70135"
   height="793.70135"
   width="374.17334"
   xml:space="preserve"
   id="svg2"
   version="1.1"><metadata
     id="metadata8"><rdf:RDF><cc:Work
         rdf:about=""><dc:format>image/svg+xml</dc:format><dc:type
           rdf:resource="http://purl.org/dc/dcmitype/StillImage" /></cc:Work></rdf:RDF></metadata><defs
     id="defs6"><clipPath
       id="clipPath18"
       clipPathUnits="userSpaceOnUse"><path
         id="path16"
         d="M 0,595.276 H 280.63 V 0 H 0 Z" /></clipPath></defs><g
     transform="matrix(1.3333333,0,0,-1.3333333,0,793.70133)"
     id="g10"><g
       id="g12"><g
         clip-path="url(#clipPath18)"
         id="g14"><g
           transform="translate(92.6919,149.359)"
           id="g20"><path
             id="path22"
             style="fill:#19191a;fill-opacity:1;fill-rule:nonzero;stroke:none"
             d="m 0,0 c -0.876,0.743 -0.796,2.045 0.182,2.672 1.246,0.799 2.832,1.637 4.763,2.303 1.789,0.617 3.437,0.937 4.803,1.101 0.598,0.072 1.185,-0.116 1.606,-0.512 4.478,-4.212 10.358,-9.037 17.807,-13.667 7.019,-4.362 13.675,-7.459 19.3,-9.666 3.417,-1.395 14.501,-5.445 27.591,-2.005 10.381,2.728 16.481,8.71 19.333,11.582 8.414,8.469 10.535,17.666 12.845,26.335 3.443,12.917 2.643,23.874 1.589,30.541 -0.011,0.071 -0.026,0.137 -0.046,0.206 -1.021,3.559 -2.164,7.235 -3.443,11.015 -1.414,4.177 -2.888,8.166 -4.392,11.961 -0.055,0.137 -0.091,0.283 -0.108,0.428 -0.34,3.017 0.037,5.21 0.469,6.689 0.137,0.471 0.556,1.813 1.327,4.4 0.691,2.316 0.695,2.459 0.688,2.648 -0.073,2.086 -2.241,2.955 -5.128,5.611 -2.85,2.622 -4.426,5.169 -5.505,6.913 -0.511,0.825 -1.647,2.748 -2.916,6.135 -2.402,6.408 -3.358,12.922 -3.769,17.358 -0.548,3.903 -1.084,11.977 2.95,21.038 4.739,10.647 13.107,16.636 17.401,19.218 0.785,0.471 1.064,1.381 0.681,2.163 -0.683,1.395 -1.362,3.063 -1.895,4.984 -0.717,2.586 -0.962,4.889 -1.015,6.712 -0.004,0.115 0.005,0.227 0.024,0.34 0.562,3.289 1.391,5.84 2.023,7.522 1.817,4.839 3.842,7.393 5.653,13.378 0.357,1.18 0.606,2.163 0.759,2.802 0.019,0.082 0.03,0.149 0.037,0.232 0.153,1.94 0.497,9.926 -5.859,16.493 -3.682,3.803 -7.985,5.451 -10.273,6.15 -4.23,1.291 -7.802,1.955 -11.108,2.334 -5.369,0.615 -7.591,0.182 -12.387,1.317 -2.578,0.61 -4.608,1.367 -5.898,1.9 0,0 -0.961,1.107 -1.311,2.693 -1.323,6.003 0.132,77.801 0.38,81.409 0.069,1.01 -0.816,1.824 -1.924,1.839 -0.361,0.005 -0.749,0.034 -1.159,0.098 -1.241,0.193 -2.193,0.634 -2.818,0.999 -0.321,0.188 -0.562,0.455 -0.709,0.777 -0.397,0.868 -0.851,2.222 -0.798,3.895 0.033,1.051 0.257,1.945 0.504,2.635 0.157,0.436 0.5,0.791 0.953,0.99 0.518,0.229 1.143,0.455 1.869,0.624 0.653,0.153 1.266,0.231 1.816,0.265 0.953,0.057 1.72,0.728 1.794,1.598 0.068,0.814 -0.5,1.541 -1.351,1.795 -0.761,0.227 -1.651,0.607 -2.505,1.25 -0.614,0.463 -1.064,0.952 -1.389,1.375 -0.095,0.123 -0.163,0.244 -0.22,0.386 -0.257,0.638 -0.525,1.51 -0.619,2.564 -0.085,0.947 -0.005,1.767 0.112,2.403 0.044,0.242 0.145,0.464 0.3,0.665 0.3,0.39 0.8,0.911 1.57,1.316 1.384,0.728 2.736,0.61 3.179,0.554 0.377,-0.006 1.715,-0.068 2.9,-1.003 1.393,-1.1 1.535,-2.586 1.556,-2.873 0.173,-30.408 0.345,-60.816 0.518,-91.224 0.004,-0.716 0.49,-1.357 1.223,-1.613 l 20.656,-7.186 c 0.098,-0.034 0.194,-0.059 0.298,-0.078 3.125,-0.556 8.085,-1.828 13.219,-5.001 3.806,-2.352 6.435,-4.963 8.126,-6.943 1.866,-2.058 4.097,-4.921 6.03,-8.619 1.768,-3.384 2.779,-6.493 3.377,-8.97 0.021,-0.087 0.034,-0.168 0.042,-0.256 0.211,-2.434 0.224,-5.695 -0.536,-9.448 -0.698,-3.449 -1.839,-6.277 -2.883,-8.379 -0.904,-1.666 -1.859,-3.752 -2.622,-6.225 -0.75,-2.433 -1.126,-4.634 -1.31,-6.464 -0.222,-2.947 0.34,-5.107 0.884,-6.524 1.235,-3.212 3.246,-4.859 3.907,-8.712 0.108,-0.626 0.16,-1.196 0.182,-1.682 0.029,-0.635 -0.33,-1.223 -0.928,-1.547 -0.611,-0.331 -1.347,-0.726 -2.178,-1.167 -4.6,-2.439 -6.78,-3.425 -8.159,-4.175 -2.36,-1.282 -5.479,-3.558 -8.503,-7.9 -1.696,-2.688 -3.78,-6.733 -4.866,-11.941 -0.72,-3.45 -0.814,-6.507 -0.688,-8.933 -0.085,-2.622 0.115,-6.391 1.474,-10.706 1.211,-3.844 2.94,-6.846 4.375,-8.933 2.168,-3.033 4.376,-4.964 6.045,-6.188 1.633,-1.197 3.756,-2.456 7.721,-5.4 0.258,-0.191 0.493,-0.367 0.7,-0.523 0.4,-0.3 0.658,-0.731 0.691,-1.204 0.019,-0.267 0.012,-0.566 -0.043,-0.886 -0.241,-1.393 -1.182,-1.961 -2.138,-3.508 -0.485,-0.786 -0.722,-1.472 -1.196,-2.843 -0.366,-1.059 -0.912,-2.638 -1.082,-4.609 -0.197,-2.283 0.198,-4.124 0.656,-5.806 1.27,-4.66 2.883,-7.96 3.834,-10.145 1.151,-2.646 2.567,-6.505 3.524,-11.534 0.005,-0.026 0.01,-0.069 0.022,-0.154 0.707,-4.844 1.082,-8.497 1.165,-9.319 0.501,-4.956 0.597,-7.793 0.615,-7.97 0.002,-0.012 0.01,-0.089 0.009,-0.193 0,0 -10e-4,-0.044 -0.004,-0.087 -0.453,-6.648 -1.014,-9.975 -1.014,-9.975 -0.727,-4.321 -2.687,-11.188 -6.054,-18.616 -1.927,-4.252 -3.833,-8.524 -7.602,-13.646 -4.716,-6.41 -9.899,-10.922 -13.894,-13.886 -3.119,-2.096 -8.516,-5.177 -15.991,-6.943 -7.641,-1.805 -14.132,-1.45 -18.015,-0.967 -0.05,0.006 -0.096,0.014 -0.146,0.023 -4.822,0.893 -10.494,2.293 -16.638,4.535 -7.693,2.807 -13.925,6.131 -18.678,9.098 C 18.761,-14.7 12.996,-10.503 7.141,-5.858 4.669,-3.897 2.289,-1.942 0,0" /></g><g
           transform="translate(126.3433,324.1329)"
           id="g24"><path
             id="path26"
             style="fill:#19191a;fill-opacity:1;fill-rule:nonzero;stroke:none"
             d="m 0,0 c 6.273,-17.981 12.523,-35.898 18.796,-53.879 l -0.928,-0.507 -1.602,2.126 c -0.058,0.076 -0.103,0.161 -0.134,0.251 l -3.466,9.955 -3.489,10.263 -3.046,8.702 -3.466,10.434 -2.235,6.532 c -0.585,1.773 -1.193,3.552 -1.825,5.339 -0.063,0.178 -0.127,0.357 -0.19,0.536 -0.049,0.118 -0.114,0.319 -0.111,0.573 10e-4,0.203 0.033,0.331 0.072,0.44 0.183,-0.003 0.542,0.004 0.921,-0.187 C -0.337,0.393 -0.112,0.144 0,0 m 23.559,-67.545 c 0.002,-0.006 0.004,-0.012 0.006,-0.018 1.876,-5.307 3.753,-10.615 5.629,-15.922 l 9.796,-29.279 c 5.456,-15.993 7.747,-21.946 8.809,-24.319 0.273,-0.608 1.355,-2.968 2.406,-6.272 0.497,-1.559 0.828,-2.831 1.008,-3.553 0.007,-0.029 0.014,-0.053 0.024,-0.08 1.535,-4.298 3.069,-8.596 4.603,-12.894 -1.631,0.62 -2.417,3.029 -3.354,5.14 -1.697,3.821 -3.192,7.106 -3.896,9.892 -0.005,0.019 -0.01,0.037 -0.017,0.055 l -17.634,52.48 -8.799,26.669 c 0.085,0.039 0.228,0.091 0.385,0.059 0.451,-0.093 0.607,-0.79 1.034,-1.958 m -31.605,84.91 c -0.881,2.392 -1.762,4.785 -2.643,7.178 -0.378,1.028 -1.543,1.582 -2.547,1.143 -0.007,-0.003 -0.015,-0.006 -0.022,-0.01 -0.173,-0.076 -0.336,-0.156 -0.49,-0.238 -0.809,-0.43 -1.145,-1.424 -0.834,-2.285 20.681,-57.255 28.174,-79.312 29.147,-83.776 0.214,-0.982 0.853,-4.51 2.437,-9.11 0.768,-2.23 1.239,-3.206 2.187,-6.143 1.532,-4.753 1.039,-4.494 1.845,-6.338 2.003,-4.588 4.381,-4.649 5.778,-8.72 0.747,-2.176 0.277,-2.768 0.65,-6.171 0.287,-2.632 1.014,-6.345 2.997,-10.776 0.035,-0.079 0.08,-0.152 0.135,-0.218 1.549,-1.85 3.594,-4.729 4.966,-8.626 1.74,-4.943 1.461,-8.865 1.534,-11.348 0.144,-4.89 1.886,-11.959 9.344,-20.97 0.069,-0.082 0.124,-0.179 0.158,-0.28 1.692,-4.928 3.412,-9.693 5.103,-14.62 0.138,-0.254 0.626,-1.298 1.74,-1.751 0.948,-0.386 1.803,-0.464 2.252,-0.437 0.183,0.012 0.357,-0.026 0.514,-0.121 0.566,-0.345 1.879,-0.995 2.118,-1.138 0.24,-0.145 0.671,-0.213 1.505,0.206 -0.004,1.022 -0.061,2.122 -0.196,3.286 -0.401,3.441 -1.355,6.318 -2.322,8.525 l -19.718,55.771 -16.118,46.998 c -7.404,22.037 -14.741,44.083 -22.146,66.12 -0.099,0.355 -0.211,1.097 -0.781,1.803 -1.015,1.256 -2.6,1.241 -2.808,1.236 l -1.973,-0.276 c -0.784,-0.109 -1.539,0.343 -1.812,1.086" /></g><g
           transform="translate(150.8226,460.4192)"
           id="g28"><path
             id="path30"
             style="fill:#181817;fill-opacity:1;fill-rule:nonzero;stroke:none"
             d="M 0,0 C -0.148,-1.915 2.919,-328.952 2.919,-328.952 L -0.073,-122.1 Z" /></g><g
           transform="translate(150.8226,460.4192)"
           id="g32"><path
             id="path34"
             style="fill:none;stroke:#19191a;stroke-width:1;stroke-linecap:butt;stroke-linejoin:miter;stroke-miterlimit:10;stroke-dasharray:none;stroke-opacity:1"
             d="M 0,0 C -0.148,-1.915 2.919,-328.952 2.919,-328.952 L -0.073,-122.1 Z" /></g><g
           transform="translate(150.8226,132.8464)"
           id="g36"><path
             id="path38"
             style="fill:#19191a;fill-opacity:1;fill-rule:nonzero;stroke:none"
             d="M 0,0 C -0.217,1.077 -2.842,328.952 -2.842,328.952 V 70.746 Z" /></g><g
           transform="translate(147.9808,134.4939)"
           id="g40"><path
             id="path42"
             style="fill:#19191a;fill-opacity:1;fill-rule:nonzero;stroke:none"
             d="M 0,0 -2.21,325.925 -1.78,15.288 Z" /></g><g
           transform="translate(78.5676,192.8679)"
           id="g44"><path
             id="path46"
             style="fill:#181817;fill-opacity:1;fill-rule:nonzero;stroke:none"
             d="m 0,0 c -8.198,-5.685 -9.008,-37.278 6.711,-26.329 6.25,3.922 9.408,10.9 12.336,17.381 1.732,3.953 3.889,8.036 5.84,11.883 0.233,0.458 0.608,1.382 0.976,1.528 0.288,0.044 0.335,-0.719 0.369,-1.031 0.416,-4.623 0.402,-9.396 0.837,-13.96 0.402,-2.854 0.026,-5.51 1.009,-8.194 3.149,-5.011 8.214,4.071 10.292,6.339 3.087,3.855 5.358,8.276 8.456,12.061 0.172,0.046 0.266,-0.223 0.285,-0.657 -0.006,-2.601 0.082,-5.605 -0.098,-8.552 -0.182,-5.142 -0.56,-10.218 -0.377,-15.297 1.499,-6.962 7.846,3.064 9.25,5.391 1.238,1.702 -0.351,3.553 -2.132,3.432 -0.55,-0.097 -1.086,-0.615 -1.407,-0.739 -0.864,-0.162 -0.428,2.024 -0.52,2.801 0.004,1.395 0.026,3.532 0.034,5.036 0.181,4.414 0.246,8.764 0.284,13.23 -0.235,2.144 1.292,9.161 -2.635,7.266 -3.844,-3.911 -6.334,-9.124 -9.748,-13.51 -1.929,-3.019 -4.385,-6.311 -6.504,-9.266 -0.511,-0.768 -1.674,-1.836 -1.847,-0.281 -0.074,3.213 0.143,6.558 -0.162,9.74 -0.134,4.006 -0.268,7.826 -0.748,11.721 -0.273,2.025 -0.482,7.156 -3.645,4.672 -6.649,-8.953 -7.887,-14.244 -14.063,-25.351 -1.888,-3.888 -4.244,-8.057 -7.485,-10.958 -1.324,-1.533 -3.384,-2.445 -5.05,-1.757 -0.767,0.317 -1.192,0.883 -1.664,1.529 -1.521,2.08 -1.564,4.481 -1.573,6.176 -0.006,1.368 0.153,2.368 0.32,3.383 0.461,2.808 0.645,6.861 3.708,9.546 0.522,0.458 1.466,0.898 1.572,1.599 0.034,0.9 -1.666,1.536 -2.454,1.229 z" /></g></g></g></g></svg>