<?xml version="1.0" encoding="UTF-8" standalone="no"?>
<svg
   xmlns:dc="http://purl.org/dc/elements/1.1/"
   xmlns:cc="http://creativecommons.org/ns#"
   xmlns:rdf="http://www.w3.org/1999/02/22-rdf-syntax-ns#"
   xmlns:svg="http://www.w3.org/2000/svg"
   xmlns="http://www.w3.org/2000/svg"
   viewBox="0 0 755.90533 755.90533"
   height="755.90533"
   width="755.90533"
   xml:space="preserve"
   id="svg2"
   version="1.1"><metadata
     id="metadata8"><rdf:RDF><cc:Work
         rdf:about=""><dc:format>image/svg+xml</dc:format><dc:type
           rdf:resource="http://purl.org/dc/dcmitype/StillImage" /></cc:Work></rdf:RDF></metadata><defs
     id="defs6"><clipPath
       id="clipPath18"
       clipPathUnits="userSpaceOnUse"><path
         id="path16"
         d="M 0,566.929 H 566.929 V 0 H 0 Z" /></clipPath></defs><g
     transform="matrix(1.3333333,0,0,-1.3333333,0,755.90533)"
     id="g10"><g
       id="g12"><g
         clip-path="url(#clipPath18)"
         id="g14"><g
           transform="translate(264.676,358.3986)"
           id="g20"><path
             id="path22"
             style="fill:#2e2d2c;fill-opacity:1;fill-rule:nonzero;stroke:none"
             d="m 0,0 c 16.227,0 31.482,6.32 42.954,17.792 11.474,11.473 17.792,26.728 17.792,42.954 0,16.225 -6.318,31.48 -17.792,42.953 C 31.482,115.172 16.227,121.491 0,121.491 c -16.225,0 -31.48,-6.319 -42.952,-17.792 -11.474,-11.473 -17.792,-26.728 -17.792,-42.953 0,-16.226 6.318,-31.481 17.792,-42.954 C -31.48,6.32 -16.225,0 0,0 m 0,109.589 c 26.933,0 48.845,-21.911 48.845,-48.843 C 48.845,33.813 26.933,11.903 0,11.903 c -26.931,0 -48.843,21.91 -48.843,48.843 0,26.932 21.912,48.843 48.843,48.843" /></g><g
           transform="translate(304.1719,238.8068)"
           id="g24"><path
             id="path26"
             style="fill:#efcb6f;fill-opacity:1;fill-rule:nonzero;stroke:none"
             d="m 0,0 v -9.545 h -17.119 c -16.808,0 -30.481,-13.673 -30.481,-30.482 v -16.03 c 0,-7.755 2.913,-14.843 7.7,-20.228 v -32.151 c 0,-16.806 13.675,-30.481 30.481,-30.481 H 92.948 c 16.809,0 30.482,13.675 30.482,30.481 v 32.131 c 4.925,5.55 7.702,12.774 7.702,20.248 v 16.03 c 0,16.809 -13.675,30.482 -30.482,30.482 H 83.53 V 0 c 0,16.065 -13.069,29.134 -29.134,29.134 H 29.134 C 13.071,29.134 0,16.065 0,0 m 111.69,-108.436 c 0,-10.333 -8.406,-18.741 -18.742,-18.741 H -9.419 c -10.333,0 -18.741,8.408 -18.741,18.741 v 23.967 c 3.425,-1.335 7.148,-2.069 11.041,-2.069 h 43.85 l 0.002,-0.339 c 0.06,-7.645 6.326,-13.865 13.973,-13.865 h 2.213 c 3.754,0 7.278,1.468 9.921,4.132 2.642,2.664 4.083,6.197 4.052,9.949 v 0.123 h 43.758 c 3.82,0 7.555,0.71 11.04,2.063 z m -73.27,28.399 -0.043,5.453 c -0.006,0.81 0.402,1.343 0.647,1.59 0.245,0.247 0.776,0.661 1.586,0.661 h 2.215 c 1.221,0 2.223,-0.994 2.233,-2.217 l 0.096,-12.203 c 0.007,-0.808 -0.404,-1.343 -0.649,-1.59 -0.245,-0.247 -0.775,-0.659 -1.586,-0.659 h -2.213 c -1.222,0 -2.225,0.994 -2.235,2.214 l -0.043,5.588 c 0.017,0.175 0.025,0.353 0.025,0.532 0,0.213 -0.013,0.423 -0.033,0.631 m 62.23,58.752 c 10.334,0 18.742,-8.406 18.742,-18.742 v -16.03 c 0,-5.226 -2.209,-10.256 -6.057,-13.796 -3.466,-3.19 -7.971,-4.946 -12.685,-4.946 H 56.8 l -0.004,0.341 c -0.059,7.645 -6.326,13.865 -13.971,13.865 H 40.61 c -3.754,0 -7.275,-1.468 -9.919,-4.132 -2.643,-2.664 -4.082,-6.199 -4.054,-9.951 l 0.002,-0.123 h -43.758 c -10.335,0 -18.741,8.409 -18.741,18.742 v 16.03 c 0,10.336 8.406,18.742 18.741,18.742 z M 71.79,0 V -9.545 H 11.74 V 0 c 0,9.592 7.804,17.396 17.394,17.396 H 54.396 C 63.988,17.396 71.79,9.592 71.79,0" /></g><g
           transform="translate(202.4274,144.5806)"
           id="g28"><path
             id="path30"
             style="fill:#2e2d2c;fill-opacity:1;fill-rule:nonzero;stroke:none"
             d="m 0,0 c 1.717,0 3.444,0.165 5.132,0.492 l 1.417,0.274 1.845,-31.143 c 0.129,-3.129 2.703,-5.626 5.863,-5.626 3.241,0 5.871,2.627 5.871,5.869 0,0.212 -0.013,0.422 -0.035,0.628 L 18.45,1.013 v 109.43 c 0,3.28 -2.67,5.95 -5.951,5.95 -3.28,0 -5.95,-2.67 -5.95,-5.95 V 13.371 L 5.816,13.065 C 3.968,12.293 2.011,11.903 0,11.903 c -8.361,0 -15.165,6.802 -15.165,15.165 v 128.549 c 0,21.42 17.425,38.845 38.845,38.845 h 38.571 38.569 c 21.419,0 38.846,-17.425 38.846,-38.845 l 0.013,-11.445 c -0.002,-0.037 -0.004,-0.074 -0.004,-0.113 0,-0.04 0.002,-0.079 0.004,-0.12 v -0.071 h 0.002 c 0.102,-3.152 2.686,-5.677 5.864,-5.677 3.22,0 5.833,2.594 5.867,5.805 h 0.002 l 0.153,11.621 c 0,13.555 -5.278,26.299 -14.863,35.883 -9.586,9.586 -22.328,14.865 -35.884,14.865 L 62.251,206.363 H 23.68 c -13.555,0 -26.299,-5.279 -35.885,-14.863 -9.584,-9.584 -14.863,-22.328 -14.863,-35.883 V 27.068 C -27.068,12.144 -14.926,0 0,0" /></g></g></g></g></svg>