<?xml version="1.0" encoding="UTF-8" standalone="no"?>
<svg
   xmlns:dc="http://purl.org/dc/elements/1.1/"
   xmlns:cc="http://creativecommons.org/ns#"
   xmlns:rdf="http://www.w3.org/1999/02/22-rdf-syntax-ns#"
   xmlns:svg="http://www.w3.org/2000/svg"
   xmlns="http://www.w3.org/2000/svg"
   viewBox="0 0 755.90533 755.90533"
   height="755.90533"
   width="755.90533"
   xml:space="preserve"
   id="svg2"
   version="1.1"><metadata
     id="metadata8"><rdf:RDF><cc:Work
         rdf:about=""><dc:format>image/svg+xml</dc:format><dc:type
           rdf:resource="http://purl.org/dc/dcmitype/StillImage" /></cc:Work></rdf:RDF></metadata><defs
     id="defs6"><clipPath
       id="clipPath18"
       clipPathUnits="userSpaceOnUse"><path
         id="path16"
         d="M 0,566.929 H 566.929 V 0 H 0 Z" /></clipPath></defs><g
     transform="matrix(1.3333333,0,0,-1.3333333,0,755.90533)"
     id="g10"><g
       id="g12"><g
         clip-path="url(#clipPath18)"
         id="g14"><g
           transform="translate(254.4826,265.486)"
           id="g20"><path
             id="path22"
             style="fill:#2e2d2c;fill-opacity:1;fill-rule:nonzero;stroke:none"
             d="M 0,0 C 0.038,30.914 -25.119,56.069 -56.031,56.033 -86.79,55.996 -111.893,30.889 -111.928,0.132 -111.963,-30.779 -86.807,-55.934 -55.897,-55.897 -25.14,-55.86 -0.037,-30.757 0,0 m -55.353,-43.573 c -24.55,-0.336 -44.589,19.705 -44.251,44.254 0.324,23.541 19.492,42.709 43.033,43.029 24.545,0.337 44.585,-19.703 44.248,-44.248 -0.322,-23.543 -19.49,-42.71 -43.03,-43.035" /></g><g
           transform="translate(238.0054,210.0316)"
           id="g24"><path
             id="path26"
             style="fill:#262626;fill-opacity:1;fill-rule:nonzero;stroke:none"
             d="m 0,0 c -0.772,0.331 -1.588,0.498 -2.422,0.498 -2.47,0 -4.695,-1.467 -5.666,-3.736 -0.648,-1.513 -0.667,-3.187 -0.056,-4.716 0.612,-1.526 1.781,-2.725 3.296,-3.372 20.647,-8.842 33.475,-24.985 33.475,-42.128 v -14.727 c 0,-3.24 2.452,-6.023 5.683,-6.267 3.611,-0.274 6.636,2.586 6.636,6.143 l 0.002,14.851 C 40.948,-31.299 25.257,-10.817 0,0" /></g><g
           transform="translate(161.461,210.5335)"
           id="g28"><path
             id="path30"
             style="fill:#2e2d2c;fill-opacity:1;fill-rule:nonzero;stroke:none"
             d="m 0,0 c -0.833,0 -1.649,-0.167 -2.421,-0.498 -25.262,-10.816 -40.955,-31.299 -40.955,-53.458 v -14.729 c 0,-3.24 2.454,-6.023 5.685,-6.265 3.611,-0.272 6.634,2.588 6.634,6.143 l 0.002,14.851 c 0,17.147 12.83,33.289 33.483,42.132 3.122,1.338 4.576,4.965 3.237,8.086 C 4.695,-1.467 2.469,0 0,0" /></g><g
           transform="translate(235.1021,162.7854)"
           id="g32"><path
             id="path34"
             style="fill:#2e2d2c;fill-opacity:1;fill-rule:nonzero;stroke:none"
             d="m 0,0 c -3.231,-0.242 -5.686,-3.025 -5.686,-6.267 v -14.668 c 0,-3.241 2.455,-6.025 5.686,-6.267 3.611,-0.272 6.636,2.588 6.636,6.142 V -6.143 C 6.636,-2.588 3.611,0.272 0,0" /></g><g
           transform="translate(160.9853,162.7854)"
           id="g36"><path
             id="path38"
             style="fill:#2e2d2c;fill-opacity:1;fill-rule:nonzero;stroke:none"
             d="m 0,0 c -3.231,-0.244 -5.685,-3.027 -5.685,-6.267 v -14.668 c 0,-3.241 2.454,-6.025 5.687,-6.267 3.609,-0.272 6.634,2.588 6.634,6.142 L 6.634,-6.143 C 6.634,-2.588 3.611,0.272 0,0" /></g><g
           transform="translate(475.0139,370.4137)"
           id="g40"><path
             id="path42"
             style="fill:#efcb6f;fill-opacity:1;fill-rule:nonzero;stroke:none"
             d="m 0,0 c -1.204,3.703 -4.489,6.307 -8.372,6.629 l -114.354,9.524 -44.393,105.813 c -1.508,3.592 -4.998,5.913 -8.893,5.913 -3.895,0 -7.386,-2.321 -8.892,-5.913 L -229.299,16.153 -343.653,6.629 c -3.881,-0.322 -7.166,-2.926 -8.37,-6.629 -1.204,-3.705 -0.075,-7.741 2.875,-10.285 l 26.266,-22.642 c 2.715,-2.338 6.813,-2.035 9.151,0.68 2.341,2.713 2.038,6.811 -0.678,9.151 l -20.248,17.453 108.451,9.031 c 3.596,0.3 6.696,2.553 8.092,5.88 l 42.102,100.351 42.101,-100.351 c 1.398,-3.327 4.498,-5.58 8.094,-5.88 l 108.451,-9.031 -82.43,-71.051 c -2.734,-2.356 -3.919,-6 -3.091,-9.514 l 24.924,-105.933 -93.048,56.439 c -3.084,1.872 -6.917,1.872 -10.001,0 l -17.345,-10.521 c -3.064,-1.857 -4.042,-5.848 -2.182,-8.912 1.858,-3.063 5.848,-4.041 8.912,-2.183 l 15.615,9.471 98.112,-59.511 c 1.545,-0.938 3.276,-1.403 5.003,-1.401 1.992,0 3.979,0.618 5.667,1.845 3.151,2.29 4.61,6.218 3.717,10.01 l -26.279,111.7 86.917,74.92 C 0.075,-7.741 1.204,-3.705 0,0" /></g></g></g></g></svg>